<?xml version="1.0" encoding="utf-8"?>
<!-- Generator: Adobe Illustrator 21.1.0, SVG Export Plug-In . SVG Version: 6.00 Build 0)  -->
<svg version="1.1" id="Layer_1" xmlns="http://www.w3.org/2000/svg" xmlns:xlink="http://www.w3.org/1999/xlink" x="0px" y="0px"
	 viewBox="0 0 512 512" style="enable-background:new 0 0 512 512;" xml:space="preserve">
<style type="text/css">
	.st0{fill:#EFEFEF;}
	.st1{fill:#1067E5;}
	.st2{fill:#2FDF84;}
	.st3{fill:#F3F3F1;}
	.st4{fill:#00B871;}
	.st5{fill:#D5DBE1;}
	.st6{fill:#B2CE09;}
</style>
<g id="BG">
	<g>
		<path class="st0" d="M115.4,79.1C89.7,174.1,22.9,226,10.5,271.8s-12,149,198.5,205.9s276.4-64,290-114.4
			C562.7,127.6,160.9-89.1,115.4,79.1L115.4,79.1z"/>
	</g>
</g>
<g id="effect">
	<g>
		<g>
			<path class="st1" d="M358.7,56.8l20.1-20.1l10.1,10.1l-20.1,20.1L358.7,56.8z"/>
		</g>
		<g>
			<path class="st1" d="M300.8,44.3l10.1-10.1L331,54.3l-10,10.1L300.8,44.3z"/>
		</g>
		<g>
			<path class="st1" d="M358.7,102.1L368.8,92l20.1,20.1l-10.1,10.1L358.7,102.1z"/>
		</g>
	</g>
	<g>
		<path class="st1" d="M124.4,423.1c-11.8,0-21.3-9.6-21.3-21.3c0-11.8,9.6-21.3,21.3-21.3s21.3,9.6,21.3,21.3
			C145.8,413.5,136.2,423.1,124.4,423.1z M124.4,394.7c-3.9,0-7.1,3.2-7.1,7.1s3.2,7.1,7.1,7.1s7.1-3.2,7.1-7.1
			S128.4,394.7,124.4,394.7z"/>
	</g>
</g>
<g id="color">
	<g>
		<path class="st2" d="M245.3,373.3c-18,0-39.8-1-56.8-10.2h-0.1v38.7c0,7.8,6.4,14.2,14.2,14.2H288c7.8,0,14.2-6.4,14.2-14.2V363
			C285.2,372.4,263.4,373.3,245.3,373.3z"/>
	</g>
	<g>
		<path class="st3" d="M309.3,110.2c-11.8,0-21.3,9.6-21.3,21.3v-14.2c0-11.8-9.6-21.3-21.3-21.3c-11.8,0-21.3,9.6-21.3,21.3v85.3
			c0-11.8-9.6-21.3-21.3-21.3s-21.3,9.6-21.3,21.3v14.2c0-11.8-9.6-21.3-21.3-21.3s-21.3,9.6-21.3,21.3v10.7v3.6v74.7
			c0,64,49.8,67.6,85.3,67.6s85.3-3.6,85.3-67.6v-42.7v-39.5v-92C330.7,119.8,321.1,110.2,309.3,110.2z"/>
	</g>
</g>
<g id="shadow">
	<g>
		<g>
			<path class="st4" d="M277.3,373.3c7.8,0,16.4-0.3,24.9-1.3v-9c-12.2,6.7-26.9,9-40.9,9.9C266.8,373.2,272.2,373.3,277.3,373.3
				L277.3,373.3z"/>
		</g>
		<g>
			<path class="st4" d="M220.4,401.8v-29.7c-11.1-1.3-22.2-3.7-31.9-9h-0.1v38.7c0,7.8,6.4,14.2,14.2,14.2h32
				C226.8,416,220.4,409.6,220.4,401.8z"/>
		</g>
	</g>
	<g>
		<g>
			<path class="st5" d="M256,181.3c11.8,0,21.3,9.6,21.3,21.3v-85.3c0-5.4,2-10.2,5.3-14c-3.9-4.5-9.6-7.4-16-7.4
				c-11.8,0-21.3,9.6-21.3,21.3v67C248.5,182.5,252.1,181.3,256,181.3z"/>
		</g>
		<g>
			<path class="st5" d="M320,117.3v14.2c0-5.4,2-10.2,5.3-14c-1.6-1.9-3.6-3.4-5.8-4.7C319.8,114.3,320,115.8,320,117.3z"/>
		</g>
		<g>
			<path class="st5" d="M213.3,195.6c11.8,0,21.3,9.6,21.3,21.3v-14.2c0-5.4,2-10.2,5.3-14c-3.9-4.5-9.6-7.4-16-7.4
				c-10.3,0-18.8,7.3-20.9,16.9C206.2,196.6,209.6,195.6,213.3,195.6L213.3,195.6z"/>
		</g>
		<g>
			<path class="st5" d="M192,305.8v-74.7v-3.6v-10.7c0-5.4,2-10.2,5.3-14c-3.9-4.5-9.6-7.4-16-7.4c-11.8,0-21.3,9.6-21.3,21.3v10.7
				v3.6v74.7c0,64,49.8,67.6,85.3,67.6c5.1,0,10.5-0.1,16-0.4C228.5,371,192,360.6,192,305.8z"/>
		</g>
	</g>
</g>
<g id="_x31_.5">
	<g>
		<g>
			<path class="st6" d="M245.3,384c-28.7,0-96,0-96-78.2v-78.2h21.3v78.2c0,47.4,28.6,56.9,74.7,56.9s74.7-9.5,74.7-56.9V131.6
				c0-5.9-4.8-10.7-10.7-10.7s-10.7,4.8-10.7,10.7V239h-21.3V131.6c0-17.6,14.4-32,32-32s32,14.4,32,32v174.2
				C341.3,384,274.1,384,245.3,384z"/>
		</g>
	</g>
	<g>
		<g>
			<path class="st6" d="M288,426.7h-85.3c-13.7,0-24.9-11.2-24.9-24.9v-38.7h21.3v38.7c0,1.9,1.6,3.6,3.6,3.6H288
				c1.9,0,3.6-1.6,3.6-3.6v-39.3h21.3v39.3C312.9,415.5,301.7,426.7,288,426.7z"/>
		</g>
	</g>
	<g>
		<g>
			<path class="st6" d="M181.3,263.1c-17.6,0-32-14.4-32-32v-14.2c0-17.6,14.4-32,32-32s32,14.4,32,32v14.2
				C213.3,248.8,199,263.1,181.3,263.1z M181.3,206.2c-5.9,0-10.7,4.8-10.7,10.7v14.2c0,5.9,4.8,10.7,10.7,10.7S192,237,192,231.1
				v-14.2C192,211,187.2,206.2,181.3,206.2z"/>
		</g>
	</g>
	<g>
		<g>
			<path class="st6" d="M224,277.3c-17.6,0-32-14.4-32-32v-42.7c0-17.6,14.4-32,32-32s32,14.4,32,32v42.7
				C256,263,241.6,277.3,224,277.3z M224,192c-5.9,0-10.7,4.8-10.7,10.7v42.7c0,5.9,4.8,10.7,10.7,10.7s10.7-4.8,10.7-10.7v-42.7
				C234.7,196.8,229.9,192,224,192z"/>
		</g>
	</g>
	<g>
		<g>
			<path class="st6" d="M246.2,273.8h-0.9c-5.9,0-10.7-4.8-10.7-10.7V117.3c0-17.6,14.4-32,32-32s32,14.4,32,32v121.6h-21.3V117.3
				c0-5.9-4.8-10.7-10.7-10.7c-5.9,0-10.7,4.8-10.7,10.7v145.8h-10.2L246.2,273.8z"/>
		</g>
	</g>
	<g>
		<g>
			<path class="st6" d="M273.3,318l-26.5-26.6c-7.8-7.6-11.9-18.1-11.3-28.9c0-9.6,4.1-19.2,11.5-26.4c11.7-12,32.1-14.8,46.4-6.4
				c2.4,1.1,5.6,3.4,8.7,6.5l36.1,36l-15.1,15.1l-36.1-36c-1.4-1.4-2.5-2.3-3.6-2.7c-8.2-4.7-16.1-2.8-21.4,2.6
				c-3.4,3.4-5.2,7.5-5.2,11.9c-0.3,5.2,1.5,9.7,5,13.1l26.6,26.7L273.3,318z"/>
		</g>
	</g>
</g>
</svg>
